<?xml version="1.0" standalone="no"?>
<svg xmlns:xlink="http://www.w3.org/1999/xlink" id="wave" style="transform:rotate(0deg); transition: 0.3s" viewBox="0 0 1440 490" version="1.1" xmlns="http://www.w3.org/2000/svg"><defs><linearGradient id="sw-gradient-0" x1="0" x2="0" y1="1" y2="0"><stop stop-color="rgba(244.281, 165.651, 255, 1)" offset="0%"/><stop stop-color="rgba(238.009, 172.952, 253.043, 1)" offset="100%"/></linearGradient></defs><path style="transform:translate(0, 0px); opacity:1" fill="url(#sw-gradient-0)" d="M0,245L40,228.7C80,212,160,180,240,212.3C320,245,400,343,480,392C560,441,640,441,720,392C800,343,880,245,960,245C1040,245,1120,343,1200,343C1280,343,1360,245,1440,245C1520,245,1600,343,1680,334.8C1760,327,1840,212,1920,138.8C2000,65,2080,33,2160,49C2240,65,2320,131,2400,196C2480,261,2560,327,2640,326.7C2720,327,2800,261,2880,228.7C2960,196,3040,196,3120,220.5C3200,245,3280,294,3360,269.5C3440,245,3520,147,3600,89.8C3680,33,3760,16,3840,32.7C3920,49,4000,98,4080,122.5C4160,147,4240,147,4320,179.7C4400,212,4480,278,4560,269.5C4640,261,4720,180,4800,171.5C4880,163,4960,229,5040,228.7C5120,229,5200,163,5280,130.7C5360,98,5440,98,5520,130.7C5600,163,5680,229,5720,261.3L5760,294L5760,490L5720,490C5680,490,5600,490,5520,490C5440,490,5360,490,5280,490C5200,490,5120,490,5040,490C4960,490,4880,490,4800,490C4720,490,4640,490,4560,490C4480,490,4400,490,4320,490C4240,490,4160,490,4080,490C4000,490,3920,490,3840,490C3760,490,3680,490,3600,490C3520,490,3440,490,3360,490C3280,490,3200,490,3120,490C3040,490,2960,490,2880,490C2800,490,2720,490,2640,490C2560,490,2480,490,2400,490C2320,490,2240,490,2160,490C2080,490,2000,490,1920,490C1840,490,1760,490,1680,490C1600,490,1520,490,1440,490C1360,490,1280,490,1200,490C1120,490,1040,490,960,490C880,490,800,490,720,490C640,490,560,490,480,490C400,490,320,490,240,490C160,490,80,490,40,490L0,490Z"/></svg>